# xmcd
#
# Track frame offsets: 
#        150
#        11085
#        23064
#        39264
#        50668
#        59916
#        67167
#        76407
#        87785
#        98440
#        112261
#        114900
#        128885
#        134775
#        140450
#        150361
#
# Disc length: 2156 seconds
#
# Revision: 0
# Processed by: cddbd v1.5.2PL0 Copyright (c) Steve Scherf et al.
# Submitted via: ExactAudioCopy v0.99pb4
#
DISCID=dc086a10
DTITLE=Various Artist - Suojele luontoa - ihmist‰kin
DYEAR=1971
DGENRE=Avantgarde
TTITLE0=P‰ivi Paunu - Kaikki Ihmisolennot (Ihmisoikeuksien Yleismaailm
TTITLE0=allinen Julistus Artiklat 1,3,4,9,5)
TTITLE1=Kaisa Korhonen - Seison Torilla
TTITLE2=Aulikki Oksanen - Katastrofilauluja Naisille 1 and 2
TTITLE3=Kaisa Korhonen - Laulu Lapsen Oikeuksien Julistuksesta 1 (Arti
TTITLE3=klat 2, 4 )
TTITLE4=Kaisa Korhonen - Laulu Lapsen Oikeuksien Julistuksesta 2 (Arti
TTITLE4=klat 9, 10)
TTITLE5=Arja Saijonmaa - Sinun Lapsesi
TTITLE6=Sananvapauden Puolustajat - Laulu Sananvapaudesta
TTITLE7=M.A.Numminen - Oikeus Mielipiteen Vapauteen (Ihmisoikeuksien Y
TTITLE7=leismaailmallinen Julistus Artikla 19)
TTITLE8=M.A.Numminen - Luonnonsuojelujenkka
TTITLE9=Magyar - Saastepilkku
TTITLE10=M.A.Numminen - J‰teveden M‰‰ritelm‰
TTITLE11=Sirut - Joutsenlampi
TTITLE12=M.A.Numminen - Vesioikeustango
TTITLE13=Rauli 'badding' Somerjoki - Vesioikeusrock
TTITLE14=Tuulikki Eloranta - Kaunis Luonto Katoaa
TTITLE15=Rauli 'badding' Somerjoki - Hymyile Miss Universum
EXTD=
EXTT0=
EXTT1=
EXTT2=
EXTT3=
EXTT4=
EXTT5=
EXTT6=
EXTT7=
EXTT8=
EXTT9=
EXTT10=
EXTT11=
EXTT12=
EXTT13=
EXTT14=
EXTT15=
PLAYORDER=
